<?xml version="1.0" encoding="UTF-8"?>
<svg width="32" height="32" viewBox="0 0 32 32" fill="none" xmlns="http://www.w3.org/2000/svg">
  <circle cx="16" cy="16" r="16" fill="#1976D2"/>
  <path d="M16 10C12.7 10 10 12.7 10 16C10 19.3 12.7 22 16 22C19.3 22 22 19.3 22 16C22 12.7 19.3 10 16 10ZM16 20C13.8 20 12 18.2 12 16C12 13.8 13.8 12 16 12C18.2 12 20 13.8 20 16C20 18.2 18.2 20 16 20Z" fill="white"/>
  <path d="M16 6V8M16 24V26M26 16H24M8 16H6M22.5 9.5L21 11M11 21L9.5 22.5M22.5 22.5L21 21M11 11L9.5 9.5" stroke="white" stroke-width="2" stroke-linecap="round"/>
  <circle cx="16" cy="16" r="2" fill="white"/>
</svg>
